<svg width="1024" height="1024" viewBox="0 0 1024 1024" fill="none" xmlns="http://www.w3.org/2000/svg">
<g clip-path="url(#clip0_4_2)">
<rect x="-10.5" y="0.5" width="1023" height="1023" fill="white" stroke="black"/>
<style>
rect {
 color: transparent;
}
@media (prefers-color-scheme: dark) {
 rect {
 color: white;
 }
}
</style>
<path d="M470.8 130.497C470.4 130.897 464.6 131.697 458 132.497C431.6 135.297 397.8 145.697 375.6 157.897C336.4 179.497 310.6 216.497 309.2 253.097C309 257.697 308.8 257.697 277 257.697H245V289.697V321.697H213H181V577.697V833.697H501H821V577.697V321.697H789H757V289.697V257.697H725H693V252.697C693 249.897 693 247.497 692.8 247.097C684 203.097 660.2 173.897 616 152.897C597.8 144.297 584.6 139.697 568.8 136.697C566.2 136.097 559 134.697 553 133.497C542.8 131.497 472.6 128.897 470.8 130.497ZM557.4 198.297C571.6 201.297 597.2 210.097 602 213.897C603 214.897 607 217.897 610.6 220.897C618.6 227.297 626.2 240.097 628 250.097L629.4 257.697H501H372.6L374 250.297C377 233.497 388 220.297 406.6 210.897C421.2 203.497 435.6 199.497 462 195.697C479.2 193.297 540.6 194.897 557.4 198.297Z" fill="currentColor"/>
</g>
<defs>
<clipPath id="clip0_4_2">
<rect width="1024" height="1024" fill="white"/>
</clipPath>
</defs>
</svg>
